HIERARCHY
ROOT root
{
	OFFSET	0	13.1	24.9
	CHANNELS 6  Xposition Yposition Zposition Xrotation Yrotation Zrotation
	JOINT spine_1
	{
		OFFSET	0	9.99999	0
		CHANNELS 3  Xrotation Yrotation Zrotation
		JOINT spine_2
		{
			OFFSET	0	112	-10
			CHANNELS 3  Xrotation Yrotation Zrotation
			JOINT spine_3
			{
				OFFSET	0	206.5	19.3
				CHANNELS 3  Xrotation Yrotation Zrotation
				JOINT spine_4
				{
					OFFSET	0	110.4	14.6
					CHANNELS 3  Xrotation Yrotation Zrotation
					JOINT neck_1
					{
						OFFSET	0	71.8	-50.3
						CHANNELS 3  Xrotation Yrotation Zrotation
						JOINT neck_2
						{
							OFFSET	0	86.2	-25.8
							CHANNELS 3  Xrotation Yrotation Zrotation
							JOINT head_ee
							{
								OFFSET	0	179.8	-8.7
								CHANNELS 3  Xrotation Yrotation Zrotation
								End Site
								{
									OFFSET	1	0	0
								}
							}
						}
					}
					JOINT left_clavicle
					{
						OFFSET	-43.2	22.4	-70.8
						CHANNELS 3  Xrotation Yrotation Zrotation
						JOINT left_shoulder
						{
							OFFSET	-93.9	-5.79999	48.7
							CHANNELS 3  Xrotation Yrotation Zrotation
							JOINT left_elbow
							{
								OFFSET	-291.4	-30.8	15.2
								CHANNELS 3  Xrotation Yrotation Zrotation
								JOINT left_lowarm_twist
								{
									OFFSET	-110.7	-3.89999	13.6
									CHANNELS 3  Xrotation Yrotation Zrotation
									JOINT left_hand
									{
										OFFSET	-110.7	-3.89999	13.6
										CHANNELS 3  Xrotation Yrotation Zrotation
										JOINT left_ee
										{
											OFFSET	-80.8	-5.10001	12.1
											CHANNELS 3  Xrotation Yrotation Zrotation
											End Site
											{
												OFFSET	1	0	0
											}
										}
									}
								}
							}
						}
					}
					JOINT right_clavicle
					{
						OFFSET	43.2	22.4	-70.8
						CHANNELS 3  Xrotation Yrotation Zrotation
						JOINT right_shoulder
						{
							OFFSET	93.9	-5.79999	48.7
							CHANNELS 3  Xrotation Yrotation Zrotation
							JOINT right_elbow
							{
								OFFSET	291.4	-30.8	15.2
								CHANNELS 3  Xrotation Yrotation Zrotation
								JOINT right_lowarm_twist
								{
									OFFSET	110.7	-3.89999	13.6
									CHANNELS 3  Xrotation Yrotation Zrotation
									JOINT right_hand
									{
										OFFSET	110.7	-3.89999	13.6
										CHANNELS 3  Xrotation Yrotation Zrotation
										JOINT right_ee
										{
											OFFSET	80.8	-5.10001	12.1
											CHANNELS 3  Xrotation Yrotation Zrotation
											End Site
											{
												OFFSET	1	0	0
											}
										}
									}
								}
							}
						}
					}
				}
			}
		}
	}
	JOINT left_hip
	{
		OFFSET	-82.8	-127.5	0.300001
		CHANNELS 3  Xrotation Yrotation Zrotation
		JOINT left_knee
		{
			OFFSET	-28.2	-396.7	2.2
			CHANNELS 3  Xrotation Yrotation Zrotation
			JOINT left_ankle
			{
				OFFSET	-11.7	-411.3	35.4
				CHANNELS 3  Xrotation Yrotation Zrotation
				JOINT left_toes
				{
					OFFSET	0	-60	-88.6
					CHANNELS 3  Xrotation Yrotation Zrotation
					JOINT left_foot_ee
					{
						OFFSET	-22.5	-16.5	-42.2
						CHANNELS 3  Xrotation Yrotation Zrotation
						End Site
						{
							OFFSET	1	0	0
						}
					}
				}
			}
		}
	}
	JOINT right_hip
	{
		OFFSET	82.8	-127.5	0.300001
		CHANNELS 3  Xrotation Yrotation Zrotation
		JOINT right_knee
		{
			OFFSET	28.2	-396.7	2.2
			CHANNELS 3  Xrotation Yrotation Zrotation
			JOINT right_ankle
			{
				OFFSET	11.7	-411.3	35.4
				CHANNELS 3  Xrotation Yrotation Zrotation
				JOINT right_toes
				{
					OFFSET	0	-60	-88.6
					CHANNELS 3  Xrotation Yrotation Zrotation
					JOINT right_foot_ee
					{
						OFFSET	22.5	-16.5	-42.2
						CHANNELS 3  Xrotation Yrotation Zrotation
						End Site
						{
							OFFSET	1	0	0
						}
					}
				}
			}
		}
	}
}
MOTION
Frames: 16
Frame Time: 0.02
307.158 687.554 -534.524 -17.8348 -88.9168 -17.3261 -0.793097 -0.638467 -0.814459 -0.792919 -0.585349 -0.853433 -0.783765 -0.379834 -0.96265 -0.78467 -0.527094 -0.89059 -13.7225 4.53637 2.0359 -13.7499 7.39506 3.34081 -0.0 0.0 -0.0 10.5498 11.8612 19.6515 13.7897 42.0214 55.7463 0.649299 -17.8302 0.101854 -5.17763 -0.21095 0.62711 -7.48055 29.7177 -29.9717 -0.0 0.0 -0.0 10.6213 11.0008 -21.1878 -11.4794 -7.86077 -58.5167 2.37866 49.6724 -1.10104 59.1394 1.69791 7.02798 6.42144 -33.2081 -55.5312 0.0 0.0 0.0 13.5772 -26.1509 6.66037 -32.5262 -0.0609555 4.92485 18.8036 27.8612 -2.75767 -11.4967 0.0 0.0 -0.0 0.0 -0.0 5.29389 0.134705 3.01853 -33.0187 0.083347 -4.99711 37.5534 29.0082 5.60469 -20.1269 0.0 0.0 0.0 0.0 0.0 
315.844 686.498 -530.699 171.264 -88.6615 173.545 -0.680053 -0.35941 -1.0895 -0.679439 -0.289358 -1.11016 -0.673255 -0.0361198 -1.14667 -0.675024 -0.216751 -1.12658 -15.0138 3.4492 2.5633 -15.0168 5.07498 3.56186 -0.0 0.0 -0.0 10.812 11.8072 20.1441 13.9186 41.1131 57.0141 0.750684 -20.3985 0.135061 -1.71252 -0.0634787 0.209466 -7.46545 29.7046 -29.8882 -0.0 0.0 -0.0 11.1059 10.4351 -22.2703 -13.6369 -7.0927 -56.7525 2.24586 48.0426 -1.00102 57.4875 1.55542 6.87137 6.50712 -33.4372 -56.4029 0.0 0.0 0.0 11.5963 -29.436 6.70895 -32.9808 -0.0816007 4.99155 17.9949 27.5332 -2.64174 -12.5535 0.0 0.0 -0.0 0.0 -0.0 8.03163 4.83702 2.61019 -38.6449 0.382814 -5.80765 34.683 29.8564 5.35303 -19.2507 0.0 0.0 0.0 0.0 0.0 
331.076 686.337 -535.525 137.313 -88.3281 140.182 -0.577943 -0.438751 -1.3022 -0.57707 -0.355007 -1.32748 -0.568043 -0.0545082 -1.37304 -0.570572 -0.27065 -1.34721 -15.601 3.2516 1.3444 -15.6229 5.44247 2.37568 -0.0 0.0 -0.0 10.8347 11.6651 20.2063 10.8214 35.5205 60.5386 0.794482 -21.4827 0.150715 4.02011 0.124194 -0.498368 -7.15486 29.7493 -27.8716 -0.0 0.0 -0.0 11.1517 8.33153 -22.3701 -15.5012 -6.68741 -55.9702 1.91471 43.4811 -0.763585 55.0967 1.35736 6.63766 6.67486 -33.4843 -58.2978 0.0 0.0 0.0 5.24772 -27.717 6.13479 -27.8747 0.119584 4.23403 24.5895 26.9129 -3.49749 -11.9374 0.0 0.0 -0.0 0.0 -0.0 13.2719 1.53638 2.64096 -45.7123 0.869574 -6.77869 30.4871 26.724 4.68187 -21.575 0.0 0.0 0.0 0.0 0.0 
337.417 683.03 -535.706 174.873 -87.9613 179.177 -0.0398835 -0.538291 -1.78342 -0.0382137 -0.423736 -1.81404 -0.0236308 -0.0323221 -1.86258 -0.0283241 -0.326026 -1.83412 -15.3443 3.79178 1.54273 -15.3733 6.35055 2.73258 -0.0 0.0 -0.0 10.9773 11.5186 20.4931 9.54562 32.9363 62.4513 0.869937 -23.313 0.17947 8.99485 0.229009 -1.12501 -6.9118 29.6675 -26.4413 -0.0 0.0 -0.0 10.8545 6.41601 -21.6915 -15.633 -9.05571 -56.5517 1.80143 41.7409 -0.686882 54.1583 1.28232 6.54372 7.07305 -33.7808 -63.364 0.0 0.0 0.0 1.35659 -32.9414 7.10453 -19.8481 0.297416 3.01612 18.8036 25.9412 -2.72494 -13.5219 0.0 0.0 -0.0 0.0 -0.0 17.7727 -0.582131 2.60517 -50.1525 1.23548 -7.35585 27.511 30.4982 4.51538 -21.5851 0.0 0.0 0.0 0.0 0.0 
350.61 680.613 -537.5 172.62 -84.0549 177.244 0.278796 -0.171234 -1.85584 0.28071 -0.052816 -1.86298 0.283194 0.33096 -1.83411 0.278501 0.0371945 -1.86335 -16.1734 4.8829 0.840659 -16.2495 8.88054 2.50999 -0.0 0.0 -0.0 10.6032 13.5982 19.5039 8.19787 27.0421 66.3807 1.00342 -26.4297 0.23563 14.4579 0.281027 -1.8206 -6.72975 29.4439 -25.5347 -0.0 0.0 -0.0 10.6001 5.44384 -21.1193 -16.2483 -8.23207 -56.8057 1.71272 40.3089 -0.628653 52.1321 1.12564 6.33682 7.23031 -34.1035 -65.6178 0.0 0.0 0.0 -0.314844 -33.5576 7.95138 -19.3819 0.30248 2.94478 18.6162 28.8431 -2.75025 -13.8646 0.0 0.0 -0.0 0.0 -0.0 20.092 -0.672516 2.57063 -51.8852 1.39029 -7.57322 27.0068 31.1011 4.48352 -23.4249 0.0 0.0 0.0 0.0 0.0 
361.72 681.843 -544.426 175.486 -80.4305 179.75 0.378664 0.0561139 -1.93712 0.380734 0.179241 -1.92963 0.375259 0.568909 -1.85258 0.37057 0.269246 -1.91915 -17.1641 7.0626 -0.010127 -17.3713 13.572 2.62208 -0.0 0.0 -0.0 9.73125 15.8595 17.6468 5.97264 18.0599 71.2108 1.20575 -30.8485 0.332679 20.359 0.262551 -2.57377 -6.25956 29.3073 -22.8215 -0.0 0.0 -0.0 10.0736 4.47967 -19.9682 -15.8912 -9.263 -56.375 1.51686 36.9191 -0.506372 52.3112 1.13919 6.35533 7.46308 -34.3204 -69.707 0.0 0.0 0.0 -1.78009 -32.7444 8.33975 -16.5101 0.320865 2.50458 19.7153 27.8916 -2.88151 -12.3584 0.0 0.0 -0.0 0.0 -0.0 21.275 -1.58493 3.10732 -52.1694 1.41631 -7.60844 24.242 29.7494 4.02751 -25.5114 0.0 0.0 0.0 0.0 0.0 
374.052 679.381 -554.893 178.127 -78.6357 -177.44 0.51138 -0.129149 -2.02113 0.513653 -0.000304117 -2.02525 0.514383 0.407732 -1.9838 0.508902 0.0893779 -2.02328 -16.3255 7.51249 -0.737893 -16.5518 14.8288 2.0036 -0.0 0.0 -0.0 9.40508 16.8417 16.9593 6.13357 15.7882 73.7062 1.33098 -33.3963 0.399282 28.922 0.0984135 -3.65428 -5.8714 29.2422 -20.5892 -0.0 0.0 -0.0 9.54298 6.33987 -18.86 -17.4343 -8.10414 -56.9538 1.20372 30.806 -0.33164 49.2588 0.916262 6.03431 7.41604 -31.9244 -70.1767 0.0 0.0 0.0 -1.74096 -31.8867 8.60565 -17.3312 0.317862 2.63051 22.2003 26.7815 -3.18855 -12.121 0.0 0.0 -0.0 0.0 -0.0 21.9406 -1.91309 3.77402 -51.871 1.38899 -7.57146 23.0732 26.9642 3.73242 -25.7078 0.0 0.0 0.0 0.0 0.0 
383.008 681.799 -556.312 179.9 -75.6567 -174.812 0.4885 0.111524 -2.31168 0.491436 0.258357 -2.29991 0.481741 0.717916 -2.20026 0.475168 0.361512 -2.28597 -16.7446 8.50329 -1.16859 -17.0569 16.9778 2.03667 -0.0 0.0 -0.0 8.56526 18.6685 15.3467 5.60902 5.20896 76.2929 1.66791 -39.5615 0.599889 34.8584 -0.109185 -4.38368 -4.99673 28.7889 -15.9188 -0.0 0.0 -0.0 9.5382 6.32212 -18.8497 -17.4606 -9.14058 -56.1223 1.04321 27.3282 -0.253622 49.1649 0.909676 6.02424 7.37781 -29.6726 -70.3602 0.0 0.0 0.0 -3.47513 -31.1564 8.61154 -13.3512 0.31559 2.01999 22.7111 28.3665 -3.28875 -11.9084 0.0 0.0 -0.0 0.0 -0.0 26.4574 -3.98825 3.41651 -45.6459 0.864448 -6.76986 18.1273 22.0127 2.86054 -27.5167 0.0 0.0 0.0 0.0 0.0 
396.307 680.148 -562.239 179.474 -74.8839 -175.351 0.457056 -0.074262 -2.36265 0.460158 0.0761873 -2.36259 0.457959 0.553011 -2.29825 0.450634 0.18321 -2.35671 -17.3062 9.2565 -1.91044 -17.7133 18.8372 1.73463 -0.0 0.0 -0.0 8.12309 20.391 14.4454 6.46317 2.36184 78.4867 1.89789 -43.2289 0.75204 39.1906 -0.307834 -4.9006 -4.6125 28.4279 -14.0091 -0.0 0.0 -0.0 8.88031 5.39257 -17.451 -16.6373 -10.6913 -55.5394 0.836975 22.5193 -0.166634 49.1084 0.905723 6.01819 7.36813 -27.6719 -70.7557 0.0 0.0 0.0 -4.38923 -30.7799 9.31453 -12.9857 0.313255 1.96396 24.0669 26.6746 -3.42608 -11.0786 0.0 0.0 -0.0 0.0 -0.0 29.5008 -5.63615 2.78927 -41.7636 0.582765 -6.24339 13.4813 16.691 2.07613 -30.0679 0.0 0.0 0.0 0.0 0.0 
406.236 680.071 -564.849 -178.038 -74.8094 -173.263 0.684845 -0.184617 -2.46802 0.688234 -0.0272459 -2.47476 0.690363 0.464512 -2.43095 0.682124 0.0748815 -2.47378 -16.9365 9.01994 3.12181 -17.1731 15.5769 6.25029 -0.0 0.0 -0.0 7.43215 22.0305 13.2185 7.50626 -2.01222 79.8853 2.04891 -45.4203 0.85758 43.058 -0.517805 -5.34841 -3.58297 28.0124 -8.55812 -0.0 0.0 -0.0 8.77534 6.68545 -17.2261 -15.9558 -12.6796 -54.9322 0.49315 13.7282 -0.0593646 52.7758 1.17462 6.40314 7.35986 -25.8303 -70.8992 0.0 0.0 0.0 -4.61157 -30.0867 10.1978 -10.9867 0.294167 1.65786 21.9744 28.9859 -3.20582 -10.9572 0.0 0.0 -0.0 0.0 -0.0 30.6379 -8.04807 1.32274 -32.3351 0.0524365 -4.89677 10.8273 11.8887 1.63 -32.3022 0.0 0.0 0.0 0.0 0.0 
417.096 681.145 -565.997 -177.702 -74.8665 -172.611 0.787453 -0.376574 -2.6922 0.791462 -0.204564 -2.71069 0.802356 0.332147 -2.69804 0.792211 -0.0979635 -2.71662 -18.5112 10.6654 3.19198 -18.9408 18.8336 7.24354 -0.0 0.0 -0.0 6.92997 21.9625 12.482 8.15018 -5.58414 80.6999 2.20796 -47.5578 0.972953 45.9995 -0.697524 -5.67908 -3.10169 27.8571 -6.00713 -0.0 0.0 -0.0 8.47971 5.47714 -16.6089 -15.6111 -14.8599 -54.1463 0.409014 11.4541 -0.0410201 52.1413 1.12633 6.33777 7.37294 -22.744 -71.262 0.0 0.0 0.0 -4.87614 -29.8829 10.2313 -11.6015 0.301175 1.75193 24.579 29.1659 -3.55001 -11.6556 0.0 0.0 -0.0 0.0 -0.0 31.6694 -9.82693 0.0451512 -28.3189 -0.104775 -4.3006 6.95581 8.92405 1.04423 -32.9387 0.0 0.0 0.0 0.0 0.0 
426.145 678.901 -567.935 -172.385 -75.4758 -167.989 0.892187 -0.528008 -2.84035 0.896609 -0.346276 -2.86816 0.915307 0.218323 -2.88072 0.903807 -0.239178 -2.87906 -16.6061 10.437 3.02903 -16.9387 18.3238 6.65498 -0.0 0.0 -0.0 6.76376 22.3637 12.2032 9.02694 -8.56327 81.2928 2.31668 -48.9251 1.05406 50.0834 -0.974789 -6.12218 -2.23055 28.6376 -0.869556 -0.0 0.0 -0.0 8.24497 5.24074 -16.1187 -14.6016 -17.5243 -52.6505 0.214241 6.05821 -0.011337 57.8475 1.58609 6.90585 7.41636 -19.8666 -71.801 0.0 0.0 0.0 -5.68212 -27.814 10.548 -5.77419 0.194307 0.864492 19.1836 29.7636 -2.84627 -11.1551 0.0 0.0 -0.0 0.0 -0.0 32.734 -11.7501 0.320545 -19.3635 -0.302669 -2.94195 1.82483 17.2847 0.294833 -32.2853 0.0 0.0 0.0 0.0 0.0 
437.777 679.265 -571.32 -168.875 -75.5696 -165.15 0.92265 -0.545422 -2.80491 0.926952 -0.365906 -2.8339 0.946369 0.190827 -2.85104 0.935122 -0.261649 -2.84542 -15.2517 10.9668 3.68784 -15.5367 18.829 7.22155 -0.0 0.0 -0.0 6.83851 22.5616 12.295 9.90548 -10.5444 81.4343 2.37769 -49.6609 1.1003 52.2685 -1.13596 -6.35092 -1.64194 28.4454 2.20884 -0.0 0.0 -0.0 8.05363 4.56884 -15.7237 -14.5131 -19.2777 -51.5498 0.188334 5.33013 -0.00876652 58.6733 1.65725 6.9842 7.44957 -17.7854 -71.9286 0.0 0.0 0.0 -6.52108 -27.0788 10.2802 -2.42936 0.0923757 0.361355 14.7648 29.0952 -2.21624 -11.8873 0.0 0.0 -0.0 0.0 -0.0 33.7244 -12.0306 -0.124675 -13.2356 -0.31489 -2.00228 -5.02769 16.4869 -0.821017 -32.6587 0.0 0.0 0.0 0.0 0.0 
448.102 678.592 -570.756 -166.776 -75.8942 -163.424 0.700723 -0.449124 -2.80715 0.705066 -0.269661 -2.83002 0.719872 0.295794 -2.82741 0.70875 -0.154269 -2.83864 -14.8703 10.8781 5.20594 -15.0623 17.7166 8.53427 -0.0 0.0 -0.0 7.17266 22.7395 12.7653 11.688 -11.7904 81.0843 2.46497 -50.6763 1.16734 55.8096 -1.41539 -6.70821 -1.12333 28.7191 5.12764 -0.0 0.0 -0.0 8.43553 3.85277 -16.5164 -14.7692 -21.1041 -50.2252 0.199823 5.65322 -0.00986607 61.5279 1.91183 7.24706 7.30949 -16.2506 -68.3601 0.0 0.0 0.0 -7.7193 -26.8365 8.88463 0.522952 -0.0218869 -0.0772656 12.3177 28.7622 -1.86002 -12.013 0.0 0.0 -0.0 0.0 -0.0 35.2033 -10.3564 0.697117 -11.6852 -0.302051 -1.76474 -9.57445 22.7817 -1.67268 -31.7743 0.0 0.0 0.0 0.0 0.0 
463.702 674.851 -569.936 -164.853 -77.3923 -161.837 0.739021 -0.75102 -2.80548 0.743218 -0.571052 -2.84754 0.77336 0.000741522 -2.90419 0.761882 -0.457739 -2.86792 -15.0744 10.5618 4.73364 -15.2778 17.4165 8.01857 -0.0 0.0 -0.0 7.30765 20.9238 13.1419 13.0227 -12.6774 81.5408 2.52716 -51.3739 1.21568 57.8311 -1.58469 -6.90429 -0.940281 27.8117 5.74491 -0.0 0.0 -0.0 8.26088 2.84877 -16.1503 -15.0502 -22.2299 -49.3835 0.196711 5.56575 -0.0095619 65.0704 2.24553 7.55523 7.29376 -13.9266 -67.1058 0.0 0.0 0.0 -9.67649 -25.3383 7.783 5.51293 -0.265952 -0.803641 7.28434 28.8728 -1.11764 -12.9948 0.0 0.0 -0.0 0.0 -0.0 37.3739 -10.5846 2.20911 -12.5848 -0.310283 -1.90252 -12.0293 26.8551 -2.21064 -31.0428 0.0 0.0 0.0 0.0 0.0 
473.966 675.484 -562.076 -162.949 -76.5498 -159.766 0.723492 -0.387782 -2.82549 0.727909 -0.207277 -2.84442 0.739605 0.358896 -2.8293 0.728448 -0.0922553 -2.85046 -13.9803 9.7797 6.71404 -14.01 14.5708 9.43969 -0.0 0.0 -0.0 7.91081 19.9101 14.1703 13.8759 -13.7527 80.3684 2.48639 -50.9189 1.18393 58.4809 -1.64056 -6.96603 -1.25924 27.1063 3.6974 -0.0 0.0 -0.0 8.63283 1.60824 -16.8981 -14.6523 -24.5482 -48.8938 0.229131 6.47579 -0.0129625 70.894 2.83366 8.01552 7.36225 -10.6694 -66.6812 0.0 0.0 0.0 -10.9725 -23.8034 7.44781 5.5907 -0.270256 -0.81479 6.53719 29.0589 -1.00631 -12.4909 0.0 0.0 -0.0 0.0 -0.0 37.1276 -10.7911 -0.0815772 -8.73464 -0.259885 -1.31401 -16.0891 28.4415 -3.02964 -31.2777 0.0 0.0 0.0 0.0 0.0 
